<svg height="512" viewBox="0 0 512 512" width="512" xmlns="http://www.w3.org/2000/svg"><g id="FilledOutline"><path d="m456 168.17a96.154 96.154 0 0 1 -28.17 68l-117.38 117.38a76.981 76.981 0 0 1 -108.9 0l-117.38-117.38a96.167 96.167 0 1 1 136-136l35.83 35.83 35.83-35.83a96.17 96.17 0 0 1 164.17 68z" fill="#ed5749"/><path d="m338.33 325.67-27.88 27.88a76.614 76.614 0 0 1 -50.15 22.42c-.04-.67-.05-1.34-.05-2.02a53.994 53.994 0 0 1 78.08-48.28z" fill="#e5493d"/><path d="m288 296.18a71.733 71.733 0 0 1 -21.14 51.04l-27.15 27.15a76.625 76.625 0 0 1 -38.16-20.82l-117.38-117.38a95.482 95.482 0 0 1 -8.46-9.68 72.193 72.193 0 0 1 69.84 18.65l9.62 9.62 9.61-9.62a72.181 72.181 0 0 1 123.22 51.04z" fill="#e5493d"/><path d="m155.165 277.387 20.935-20.933a56.18 56.18 0 0 1 39.722-16.454 56.178 56.178 0 0 1 56.178 56.178 56.18 56.18 0 0 1 -16.454 39.722l-68.574 68.574a44.981 44.981 0 0 1 -63.614 0l-68.574-68.574a56.18 56.18 0 0 1 -16.454-39.722 56.178 56.178 0 0 1 56.178-56.178 56.182 56.182 0 0 1 39.724 16.454z" fill="#f9a239"/><path d="m355.165 361.254 14.14-14.139a37.944 37.944 0 0 1 26.833-11.115 37.948 37.948 0 0 1 37.947 37.947 37.944 37.944 0 0 1 -11.115 26.833l-46.32 46.32a30.386 30.386 0 0 1 -42.97 0l-46.321-46.32a37.947 37.947 0 0 1 -11.114-26.833 37.948 37.948 0 0 1 37.947-37.947 37.944 37.944 0 0 1 26.833 11.115z" fill="#f49196"/><path d="m215.822 232a63.761 63.761 0 0 0 -45.381 18.8l-15.276 15.277-15.276-15.277a64.179 64.179 0 0 0 -90.762 90.76l68.573 68.574a53.04 53.04 0 0 0 74.926 0l68.574-68.575a64.178 64.178 0 0 0 -45.378-109.559zm34.067 98.245-68.574 68.574a36.981 36.981 0 0 1 -52.3 0l-68.574-68.573a48.178 48.178 0 1 1 68.134-68.135l20.933 20.934a8 8 0 0 0 11.314 0l20.933-20.934a48.178 48.178 0 0 1 68.134 68.134z"/><path d="m381.796 221.426h15.046v15.999h-15.046z" transform="matrix(.707 -.707 .707 .707 -48.199 342.488)"/><path d="m410.863 219.2a72.167 72.167 0 0 0 -23.841-117.879l-6.044 14.815a56.167 56.167 0 0 1 18.572 91.75z"/><path d="m78.669 216.865a88.167 88.167 0 0 1 135.841-111.042l35.833 35.834a8 8 0 0 0 11.314 0l35.833-35.834a88.167 88.167 0 0 1 124.687 124.686l-83.834 83.834 11.314 11.314 83.833-83.834a104.166 104.166 0 0 0 -147.313-147.314l-30.177 30.178-30.177-30.178a104.167 104.167 0 0 0 -160.493 131.191z"/><path d="m396.138 328a45.65 45.65 0 0 0 -32.491 13.458l-8.482 8.482-8.483-8.483a45.948 45.948 0 0 0 -64.982 64.981l46.32 46.319a38.385 38.385 0 0 0 54.284 0l46.32-46.32a45.948 45.948 0 0 0 -32.486-78.437zm21.175 67.123-46.32 46.321a22.383 22.383 0 0 1 -31.656 0l-46.321-46.32a29.947 29.947 0 0 1 42.352-42.352l14.14 14.141a8 8 0 0 0 11.314 0l14.139-14.14a29.947 29.947 0 1 1 42.352 42.352z"/></g></svg>